<svg xmlns="http://www.w3.org/2000/svg" width="22" height="22" viewBox="0 0 22 22">
  <g id="Group_28264" data-name="Group 28264" transform="translate(1619 20230)">
    <path id="Path_21616" data-name="Path 21616" d="M21.333,3H6.667A3.667,3.667,0,0,0,3,6.667V21.333A3.667,3.667,0,0,0,6.667,25H21.333A3.667,3.667,0,0,0,25,21.333V6.667A3.667,3.667,0,0,0,21.333,3ZM6.667,5.444H21.333a1.222,1.222,0,0,1,1.222,1.222V16.884l-3.911-3.337a3.386,3.386,0,0,0-4.3,0l-8.9,7.419V6.667A1.222,1.222,0,0,1,6.667,5.444Z" transform="translate(-1622 -20233)"/>
    <circle id="Ellipse_1" data-name="Ellipse 1" cx="2.391" cy="2.391" r="2.391" transform="translate(-1614.983 -20225.41)"/>
  </g>
</svg>
