<svg xmlns="http://www.w3.org/2000/svg" width="22" height="22" viewBox="0 0 22 22">
  <g id="Group_28325" data-name="Group 28325" transform="translate(15456 18033)">
    <path id="Path_21617" data-name="Path 21617" d="M24.167,4H5.833A1.835,1.835,0,0,0,4,5.833V24.167A1.835,1.835,0,0,0,5.833,26H24.167A1.835,1.835,0,0,0,26,24.167V5.833A1.835,1.835,0,0,0,24.167,4ZM20.5,24.167V20.5H16.833v3.667H13.167V20.5H9.5V16.833h3.667V13.167H9.5V9.5h3.667V5.833h3.667V9.5H20.5V5.833h3.667V24.167Z" transform="translate(-15460 -18037)"/>
    <rect id="Rectangle_10329" data-name="Rectangle 10329" width="4" height="4" transform="translate(-15447 -18027.602)"/>
    <rect id="Rectangle_10330" data-name="Rectangle 10330" width="4" height="4" transform="translate(-15447 -18020.398)"/>
    <rect id="Rectangle_10331" data-name="Rectangle 10331" width="4" height="4" transform="translate(-15443.4 -18024)"/>
  </g>
</svg>
