<svg xmlns="http://www.w3.org/2000/svg" width="22" height="22" viewBox="0 0 22 22">
  <path id="palette-svgrepo-com" d="M8.79.181A10.942,10.942,0,0,0,.235,8.706c-1.59,8.035,5.659,14.025,11.121,13.179a2.712,2.712,0,0,0,1.826-3.94A2.907,2.907,0,0,1,15.8,13.717h3.425a2.811,2.811,0,0,0,2.789-2.806A11.009,11.009,0,0,0,8.79.181ZM4.137,13.717a1.375,1.375,0,1,1,1.375-1.375A1.374,1.374,0,0,1,4.137,13.717Zm1.375-5.5A1.375,1.375,0,1,1,6.887,6.842,1.374,1.374,0,0,1,5.512,8.217Zm5.5-2.75a1.375,1.375,0,1,1,1.375-1.375A1.374,1.374,0,0,1,11.012,5.467Zm5.5,2.75a1.375,1.375,0,1,1,1.375-1.375A1.374,1.374,0,0,1,16.512,8.217Z" transform="translate(-0.012 0.035)"/>
</svg>
