<svg id="Icon_ionic-logo-instagram" data-name="Icon ionic-logo-instagram" xmlns="http://www.w3.org/2000/svg" width="33.503" height="33.503" viewBox="0 0 33.503 33.503">
    <path id="Контур_1" data-name="Контур 1" d="M28.231,7.292a7,7,0,0,1,6.98,6.98v13.96a7,7,0,0,1-6.98,6.98H14.272a7,7,0,0,1-6.98-6.98V14.272a7,7,0,0,1,6.98-6.98h13.96m0-2.792H14.272A9.8,9.8,0,0,0,4.5,14.272v13.96A9.8,9.8,0,0,0,14.272,38h13.96A9.8,9.8,0,0,0,38,28.231V14.272A9.8,9.8,0,0,0,28.231,4.5Z" transform="translate(-4.5 -4.5)"/>
    <path id="Контур_2" data-name="Контур 2" d="M25.719,13.188a2.094,2.094,0,1,1,2.094-2.094A2.089,2.089,0,0,1,25.719,13.188Z" transform="translate(0.106 -3.416)"/>
    <path id="Контур_3" data-name="Контур 3" d="M19.626,14.042a5.584,5.584,0,1,1-5.584,5.584,5.589,5.589,0,0,1,5.584-5.584m0-2.792A8.376,8.376,0,1,0,28,19.626a8.378,8.378,0,0,0-8.376-8.376Z" transform="translate(-2.874 -2.874)"/>
</svg>
