<svg xmlns="http://www.w3.org/2000/svg" width="40" height="40" viewBox="0 0 40 40">
  <g id="Navigation_Logo" data-name="Navigation Logo" transform="translate(-602.003 -327.5)">
    <path id="Subtraction_3" data-name="Subtraction 3" d="M0,33.775V0H12.766V33.775H0ZM5.9,22.265a10.432,10.432,0,0,0-1.643.134v7.1h.922v-2.88a2.933,2.933,0,0,0,.616.067l.093,0c.043,0,.09,0,.144,0A2.772,2.772,0,0,0,8,25.89a2.145,2.145,0,0,0,.5-1.523,1.923,1.923,0,0,0-.607-1.5,2.727,2.727,0,0,0-1.714-.609c-.071,0-.144,0-.214.009Zm-.1,3.68a2.659,2.659,0,0,1-.653-.08l.062-2.793A4.074,4.074,0,0,1,5.965,23h.051c1.321,0,1.6.766,1.6,1.407,0,.977-.63,1.537-1.729,1.537Z" transform="translate(602.003 327.5)"/>
    <path id="Subtraction_1" data-name="Subtraction 1" d="M0,33.775V0H12.766V33.775H0ZM5.8,22.246a8.794,8.794,0,0,0-1.657.156v7.054h.887v-3.11h.839c.808.033,1.168.4,1.378,1.39a9.472,9.472,0,0,0,.456,1.722h.919A12.132,12.132,0,0,1,8.1,27.48,1.781,1.781,0,0,0,7.08,26.034,1.878,1.878,0,0,0,8.375,24.2a1.848,1.848,0,0,0-.536-1.368,2.774,2.774,0,0,0-1.716-.6c-.088,0-.18,0-.273.014Zm.309,3.438a1.309,1.309,0,0,1-.175-.012h-.9L5.007,23.05a3.446,3.446,0,0,1,.8-.091h.087c1.046.021,1.6.486,1.6,1.346a1.379,1.379,0,0,1-1.377,1.379Z" transform="translate(615.6 327.5)"/>
    <path id="Subtraction_2" data-name="Subtraction 2" d="M0,33.775V0H12.766V33.775H0ZM6.182,22.069a2.96,2.96,0,0,0-2.288,1.075,4.147,4.147,0,0,0-.91,2.694c0,2.112,1.3,3.646,3.086,3.646a3.01,3.01,0,0,0,2.261-.964,4.1,4.1,0,0,0,.94-2.819,3.98,3.98,0,0,0-.854-2.616A2.838,2.838,0,0,0,6.182,22.069Zm-.021,6.656c-1.439,0-2.192-1.46-2.192-2.9a3.854,3.854,0,0,1,.545-2.1,1.949,1.949,0,0,1,3.306.021,3.716,3.716,0,0,1,.541,1.993C8.36,27.5,7.456,28.726,6.161,28.726Z" transform="translate(629.197 327.5)"/>
    <path id="Path_21403" data-name="Path 21403" d="M34,43.33h2.936v.584h-2.2v1.768H36.8v.584H34.736v2.4H34Z" transform="translate(595.174 318.834)"/>
    <path id="Path_21404" data-name="Path 21404" d="M39.68,43.33v5.336H39V43.33Z" transform="translate(594.172 318.834)"/>
    <path id="Path_21405" data-name="Path 21405" d="M41.39,43.33h.7v4.8h2.328v.536H41.39Z" transform="translate(593.686 318.834)"/>
    <path id="Path_21406" data-name="Path 21406" d="M48.994,46.162h-2.12V48.09h2.4v.576h-3.1V43.33h2.944v.584h-2.24v1.68h2.12Z" transform="translate(592.729 318.834)"/>
  </g>
</svg>
