<svg xmlns="http://www.w3.org/2000/svg" width="33" height="27" viewBox="0 0 33 27">
    <path id="Icon_ionic-logo-twitter" data-name="Icon ionic-logo-twitter" d="M34.413,7.7a13.63,13.63,0,0,1-3.888,1.076A6.825,6.825,0,0,0,33.5,5.006a13.409,13.409,0,0,1-4.3,1.652,6.791,6.791,0,0,0-11.538,6.209A19.153,19.153,0,0,1,3.707,5.745a6.845,6.845,0,0,0,2.1,9.1,6.585,6.585,0,0,1-3.077-.851v.084a6.8,6.8,0,0,0,5.434,6.68A6.78,6.78,0,0,1,6.385,21a6.354,6.354,0,0,1-1.273-.127A6.786,6.786,0,0,0,11.441,25.6,13.544,13.544,0,0,1,1.413,28.42,18.85,18.85,0,0,0,11.777,31.5c12.469,0,19.28-10.385,19.28-19.392,0-.3-.007-.591-.021-.879A13.824,13.824,0,0,0,34.413,7.7Z" transform="translate(-1.413 -4.5)"/>
</svg>
