<svg xmlns="http://www.w3.org/2000/svg" width="40" height="40" viewBox="0 0 40 40">
  <g id="Launch_Profile_Active" data-name="Launch Profile Active" transform="translate(-1695 -1181)">
    <rect id="Rectangle_10429" data-name="Rectangle 10429" width="40" height="40" rx="8" transform="translate(1695 1181)" fill="#4ba581"/>
    <path id="launch-svgrepo-com" d="M7,9v5s-3,2-3,5v1H8l2,3h4l2-3h4V19c0-3-3-5-3-5V9c0-4-3-8-5-8S7,5,7,9ZM8,20h8M12,9a1,1,0,1,0-1-1A1,1,0,0,0,12,9Z" transform="translate(1703 1189)" fill="none" stroke="#fff" stroke-width="2"/>
  </g>
</svg>
