<svg xmlns="http://www.w3.org/2000/svg" width="40" height="40" viewBox="0 0 40 40">
  <g id="Launch_Profile_Neutral" data-name="Launch Profile Neutral" transform="translate(-313 -1181)">
    <g id="Rectangle_10279" data-name="Rectangle 10279" transform="translate(313 1181)" fill="#fff" stroke="#4ba581" stroke-width="2">
      <rect width="40" height="40" rx="8" stroke="none"/>
      <rect x="1" y="1" width="38" height="38" rx="7" fill="none"/>
    </g>
    <path id="launch-svgrepo-com" d="M7,9v5s-3,2-3,5v1H8l2,3h4l2-3h4V19c0-3-3-5-3-5V9c0-4-3-8-5-8S7,5,7,9ZM8,20h8M12,9a1,1,0,1,0-1-1A1,1,0,0,0,12,9Z" transform="translate(321 1189)" fill="#4ba581"/>
    <g id="launch-svgrepo-com-2" data-name="launch-svgrepo-com" transform="translate(321 1189)" fill="none">
      <path d="M7,9v5s-3,2-3,5v1H8l2,3h4l2-3h4V19c0-3-3-5-3-5V9c0-4-3-8-5-8S7,5,7,9ZM8,20h8M12,9a1,1,0,1,0-1-1A1,1,0,0,0,12,9Z" stroke="none"/>
      <path d="M 6 9 L 7 9 C 7 9 7 14 7 14 L 6 14 L 6 9 M 6.44529914855957 13.16794967651367 L 7 14 C 7 14 4 16 4 19 C 4 19 4 20 4 20 C 4 20 8 20 8 20 L 8 21 L 3 21 L 3 19 C 3 15.50500106811523 6.304622650146484 13.26173400878906 6.44529914855957 13.16794967651367 M 7.167949676513672 20.55470085144043 L 8 20 C 8 20 10 23 10 23 C 10 23 14 23 14 23 C 14 23 16 20 16 20 L 16.83205032348633 20.55470085144043 L 14.53518390655518 24 L 9.464816093444824 24 L 7.167949676513672 20.55470085144043 M 16 21 L 16 20 C 16 20 20 20 20 20 C 20 20 20 19 20 19 C 20 16 17 14 17 14 L 17.55470085144043 13.16794967651367 C 17.69537734985352 13.26173400878906 21 15.50500106811523 21 19 L 21 21 L 16 21 M 18 14 L 17 14 C 17 14 17 9 17 9 C 17 7 16.25 5 15.25 3.5 C 14.25 2 13 1 12 1 C 11 1 9.75 2 8.75 3.5 C 7.75 5 7 7 7 9 L 6 9 C 6 6.980478286743164 6.699066162109375 4.773626327514648 7.917949676513672 2.94529914855957 C 9.147451400756836 1.101047515869141 10.67345237731934 0 12 0 C 13.32654762268066 0 14.85254859924316 1.101047515869141 16.08205032348633 2.94529914855957 C 17.30093383789062 4.773626327514648 18 6.980478286743164 18 9 L 18 14 M 8 21 L 8 20 C 8 20 16 20 16 20 L 16 21 L 8 21 M 12 10 L 12 9 C 12.55228424072266 9 13 8.552285194396973 13 8 C 13 7.447715759277344 12.55228424072266 7 12 7 C 11.44771575927734 7 11 7.447715759277344 11 8 C 11 8.552285194396973 11.44771575927734 9 12 9 L 12 10 C 10.89719581604004 10 10 9.102804183959961 10 8 C 10 6.897195816040039 10.89719581604004 6 12 6 C 13.10280418395996 6 14 6.897195816040039 14 8 C 14 9.102804183959961 13.10280418395996 10 12 10 M 6.44529914855957 13.16794967651367 L 7 14 L 6.44529914855957 13.16794967651367 Z M 6 14 L 7 14 L 6 14 Z M 8 20 L 8 21 L 8 20 L 7.167949676513672 20.5546989440918 L 8 20 Z M 16 20 L 16 21 L 16 20 Z M 16 20 L 16.83205032348633 20.5546989440918 L 16 20 Z M 17.5546989440918 13.16794967651367 L 17 14 L 17.5546989440918 13.16794967651367 Z M 17 14 L 18 14 L 17 14 Z" stroke="none" fill="#fff"/>
    </g>
  </g>
</svg>
