<svg id="MOBILE_VIEW" data-name="MOBILE VIEW" xmlns="http://www.w3.org/2000/svg" width="40" height="40" viewBox="0 0 40 40">
  <path id="Path_21582" data-name="Path 21582" d="M8,0H32a8,8,0,0,1,8,8V32a8,8,0,0,1-8,8H8a8,8,0,0,1-8-8V8A8,8,0,0,1,8,0Z" fill="#8633ce"/>
  <path id="mobile-svgrepo-com" d="M16.75.75H8.881A2.134,2.134,0,0,0,6.75,2.881V18.619A2.134,2.134,0,0,0,8.881,20.75H16.75a2.133,2.133,0,0,0,2.131-2.131V2.881A2.134,2.134,0,0,0,16.75.75Zm.492,17.869a.492.492,0,0,1-.492.492H8.881a.492.492,0,0,1-.492-.492V2.881a.493.493,0,0,1,.492-.492H16.75a.492.492,0,0,1,.492.492h0Zm-3.115-1.8H11.5a.82.82,0,0,0,0,1.639h2.623a.82.82,0,0,0,0-1.639Z" transform="translate(7.184 9.25)" fill="#fff"/>
</svg>
