<svg xmlns="http://www.w3.org/2000/svg" width="40" height="40" viewBox="0 0 40 40">
  <g id="Edit_Brick_Copy_Active" data-name="Edit Brick Copy Active" transform="translate(-1695 -523)">
    <path id="Path_21612" data-name="Path 21612" d="M8,0H32a8,8,0,0,1,8,8V32a8,8,0,0,1-8,8H8a8,8,0,0,1-8-8V8A8,8,0,0,1,8,0Z" transform="translate(1695 523)" fill="#4ba581"/>
    <path id="edit" d="M13.659,3.926l5.829,5.829Zm8.058,1.257a.974.974,0,0,1-.008,1.379L8.8,19.471,2,21.415l1.943-6.8L16.852,1.705A.972.972,0,0,1,18.231,1.7ZM2.972,18.5l1.943,1.943" transform="translate(1703 531.586)" fill="none" stroke="#fff" stroke-width="2"/>
  </g>
</svg>
