<svg xmlns="http://www.w3.org/2000/svg" width="40" height="40" viewBox="0 0 40 40">
  <g id="Save_Profile_Neutral" data-name="Save Profile Neutral" transform="translate(-313 -1262)">
    <rect id="Rectangle_10281" data-name="Rectangle 10281" width="40" height="40" rx="8" transform="translate(313 1262)" fill="#fff"/>
    <path id="Path_21461" data-name="Path 21461" d="M18.571,0H1.429A1.431,1.431,0,0,0,0,1.429V18.571A1.431,1.431,0,0,0,1.429,20H18.571A1.431,1.431,0,0,0,20,18.571V1.429A1.431,1.431,0,0,0,18.571,0ZM10.687,1.3H12.9V3.672H10.687V1.3Zm-6.027,0H9.383v3.02a.652.652,0,0,0,.652.652h3.522a.652.652,0,0,0,.652-.652V1.3h1.147v5.2H4.661ZM4.652,18.7V13.421H15.347V18.7ZM18.7,18.571h0a.125.125,0,0,1-.125.125H16.652V12.768A.652.652,0,0,0,16,12.116H4a.652.652,0,0,0-.652.652V18.7H1.429a.125.125,0,0,1-.125-.125V1.429A.125.125,0,0,1,1.429,1.3H3.356V7.158a.652.652,0,0,0,.652.652h12a.652.652,0,0,0,.652-.652V1.3h1.911a.125.125,0,0,1,.125.125Z" transform="translate(323 1272)" stroke="#000" stroke-width="0.5"/>
  </g>
</svg>
