<svg xmlns="http://www.w3.org/2000/svg" width="40" height="40" viewBox="0 0 40 40">
  <g id="Profile_Settings_Hover" data-name="Profile Settings Hover" transform="translate(-1016 -1322)">
    <rect id="Rectangle_10279" data-name="Rectangle 10279" width="40" height="40" rx="8" transform="translate(1016 1322)" fill="#e9f1fe"/>
    <path id="Path_21456" data-name="Path 21456" d="M14.072,2.932a8.118,8.118,0,0,0-1.866-.776V1.49A1.493,1.493,0,0,0,10.716,0H9.388A1.493,1.493,0,0,0,7.9,1.49v.666a7.941,7.941,0,0,0-1.866.776l-.474-.47a1.489,1.489,0,0,0-2.107,0L2.512,3.4a1.489,1.489,0,0,0,0,2.107l.47.47a8.118,8.118,0,0,0-.776,1.866H1.54A1.493,1.493,0,0,0,.05,9.334v1.327a1.493,1.493,0,0,0,1.49,1.49h.666a7.941,7.941,0,0,0,.776,1.866l-.47.474a1.493,1.493,0,0,0,0,2.107l.939.939a1.489,1.489,0,0,0,2.107,0l.47-.47a8.118,8.118,0,0,0,1.866.776v.666A1.493,1.493,0,0,0,9.384,20h1.327a1.493,1.493,0,0,0,1.49-1.49v-.666a7.941,7.941,0,0,0,1.866-.776l.47.47a1.489,1.489,0,0,0,2.107,0l.939-.939a1.493,1.493,0,0,0,0-2.107l-.47-.47a8.118,8.118,0,0,0,.776-1.866h.666a1.493,1.493,0,0,0,1.49-1.49V9.339a1.493,1.493,0,0,0-1.49-1.49H17.89a7.941,7.941,0,0,0-.776-1.866l.47-.47a1.493,1.493,0,0,0,0-2.107l-.939-.939a1.489,1.489,0,0,0-2.107,0Zm1.462.519a.086.086,0,0,1,.127,0l.939.939a.086.086,0,0,1,0,.127l-.862.862a.7.7,0,0,0-.086.886,6.62,6.62,0,0,1,1,2.417.7.7,0,0,0,.686.563H18.56a.091.091,0,0,1,.09.09v1.327a.091.091,0,0,1-.09.09H17.339a.7.7,0,0,0-.686.563,6.662,6.662,0,0,1-1,2.417.7.7,0,0,0,.086.886l.862.862a.086.086,0,0,1,0,.127l-.939.939a.09.09,0,0,1-.127,0l-.862-.862a.7.7,0,0,0-.886-.086,6.65,6.65,0,0,1-2.417,1,.7.7,0,0,0-.563.686v1.221a.091.091,0,0,1-.09.09H9.388a.091.091,0,0,1-.09-.09V17.285a.7.7,0,0,0-.563-.686,6.692,6.692,0,0,1-2.417-1,.709.709,0,0,0-.388-.118.7.7,0,0,0-.494.2l-.862.862a.086.086,0,0,1-.127,0l-.939-.939a.086.086,0,0,1,0-.127l.862-.862a.7.7,0,0,0,.086-.886,6.65,6.65,0,0,1-1-2.417.7.7,0,0,0-.686-.563H1.54a.091.091,0,0,1-.09-.09V9.334a.091.091,0,0,1,.09-.09H2.761a.7.7,0,0,0,.686-.563,6.692,6.692,0,0,1,1-2.417.7.7,0,0,0-.086-.886L3.5,4.516a.086.086,0,0,1-.024-.065A.083.083,0,0,1,3.5,4.39L4.44,3.45a.086.086,0,0,1,.127,0l.862.862a.7.7,0,0,0,.886.086,6.65,6.65,0,0,1,2.417-1,.7.7,0,0,0,.563-.686V1.49a.091.091,0,0,1,.09-.09h1.327a.091.091,0,0,1,.09.09V2.711a.7.7,0,0,0,.563.686,6.692,6.692,0,0,1,2.417,1,.7.7,0,0,0,.886-.086Z" transform="translate(1025.949 1332)" fill="#3392ce"/>
    <path id="Path_21457" data-name="Path 21457" d="M149.417,145.3a4.067,4.067,0,1,0,4.067,4.067A4.073,4.073,0,0,0,149.417,145.3Zm0,6.733a2.666,2.666,0,1,1,2.666-2.666A2.67,2.67,0,0,1,149.417,152.033Z" transform="translate(886.582 1192.633)" fill="#3392ce"/>
  </g>
</svg>
